#!OML:ASF F:\VICON\USERDATA\INSTALL\rory3\rory3.ASF
:FULLY-SPECIFIED
:DEGREES
830
root -7.82083 15.2008 -10.8262 -148.227 -63.1476 -188.701
lowerback -4.48923 -2.85517 2.11253
upperback -11.3523 -5.359 -5.6563
thorax -10.4264 -3.66915 -6.9652
lowerneck -6.5729 17.0481 6.43357
upperneck -0.405486 22.6387 -14.3359
head 3.30131 10.8606 -3.77139
rclavicle -1.98785e-015 -2.22639e-014
rhumerus -47.4176 -23.5495 -67.5517
rradius 18.3223
rwrist 2.04078
rhand -0.0703869 13.6676
rfingers 7.12502
rthumb 25.523 -14.6428
lclavicle -1.98785e-015 -2.22639e-014
lhumerus -24.9407 14.0472 74.6526
lradius 14.7637
lwrist -50.7021
lhand 10.6538 12.7257
lfingers 7.12502
lthumb 35.7461 39.1042
rfemur 281.334 -24.3684 -322.179
rtibia 45.3791
rfoot 148.807 -227.056
rtoes 44.7325
lfemur -33.4474 24.6695 -30.2457
ltibia 54.0908
lfoot 123.184 -154.388
ltoes 14.091
831
root -7.72712 15.1472 -10.8146 -146.533 -62.632 -190.527
lowerback -4.2523 -2.46379 0.347654
upperback -11.4999 -4.96697 -6.21908
thorax -10.5748 -3.37083 -6.59035
lowerneck -5.93181 16.6422 5.18669
upperneck -1.0339 22.0508 -12.805
head 2.6325 10.6811 -3.37384
rclavicle -1.77912e-014 1.20861e-013
rhumerus -47.2403 -20.9035 -71.7294
rradius 20.3009
rwrist 0.0562909
rhand 0.30669 13.1284
rfingers 7.12502
rthumb 25.8841 -15.1298
lclavicle -1.77912e-014 1.20861e-013
lhumerus -26.119 16.3212 72.9178
lradius 14.1844
lwrist -53.87
lhand 10.1096 11.0867
lfingers 7.12502
lthumb 35.2303 37.5886
rfemur 282.117 -21.6231 -326.632
rtibia 45.3691
rfoot 145.669 -230.094
rtoes 45.2823
lfemur -34.6223 25.466 -31.4937
ltibia 55.0888
lfoot 123.906 -154.606
ltoes 13.6572
832
root -7.66618 15.1415 -10.6589 -147.715 -63.8079 -189.644
lowerback -3.72028 -2.53884 1.7418
upperback -11.0154 -4.89139 -6.004
thorax -10.4225 -3.38545 -7.13242
lowerneck -6.83444 16.5778 5.44262
upperneck -0.433011 22.0065 -13.1183
head 3.01711 10.5874 -3.38519
rclavicle -3.71727e-014 -4.6118e-014
rhumerus -45.7371 -17.8597 -75.5357
rradius 22.2457
rwrist -1.34677
rhand 0.545723 12.7437
rfingers 7.12502
rthumb 26.113 -15.4809
lclavicle -3.71727e-014 -4.6118e-014
lhumerus -26.3334 20.9808 71.666
lradius 13.4093
lwrist -57.4549
lhand 9.74532 11.8304
lfingers 7.12502
lthumb 34.8847 38.4133
rfemur 281.11 -24.4787 -323.283
rtibia 45.3444
rfoot 148.295 -227.472
rtoes 45.6523
lfemur -35.1582 25.4364 -30.9137
ltibia 56.1389
lfoot 124.163 -154.783
ltoes 13.173
833
root -7.58427 15.0899 -10.64 -145.999 -63.7178 -191.566
lowerback -3.44808 -2.2338 0.302439
upperback -11.0777 -4.59162 -6.4803
thorax -10.5363 -3.14834 -6.84361
lowerneck -7.14215 16.1529 5.17928
upperneck 0.304136 21.4937 -12.2811
head 3.11668 10.3284 -3.12564
rclavicle 2.44008e-014 3.65764e-014
rhumerus -45.8741 -15.5636 -78.7849
rradius 24.4562
rwrist -2.14417
rhand 0.972201 12.3472
rfingers 7.12502
rthumb 26.5212 -15.8164
lclavicle 2.44008e-014 3.65764e-014
lhumerus -26.9541 17.184 72.4609
lradius 13.7731
lwrist -53.4922
lhand 9.93265 13.6562
lfingers 7.12502
lthumb 35.0625 40.1976
rfemur 280.782 -24.1311 -324.78
rtibia 45.5555
rfoot 147.345 -227.992
rtoes 45.8521
lfemur -36.1475 26.2004 -31.994
ltibia 57.0518
lfoot 125.025 -155.068
ltoes 12.3414
834
root -7.51016 15.0402 -10.5783 -144.052 -63.6784 -193.702
lowerback -3.29039 -2.11 -0.891067
upperback -10.9497 -4.46333 -6.69508
thorax -10.3892 -2.97813 -6.40171
lowerneck -7.71014 15.8892 4.76124
upperneck 0.722889 21.1858 -11.9879
head 3.23103 10.1466 -2.96463
rclavicle 2.13197e-014 -7.95139e-015
rhumerus -45.3461 -12.3134 -81.8669
rradius 26.8837
rwrist -2.5788
rhand 1.36288 11.9622
rfingers 7.12502
rthumb 26.8951 -16.1444
lclavicle 2.13197e-014 -7.95139e-015
lhumerus -27.3175 14.3381 73.613
lradius 14.2947
lwrist -49.6665
lhand 9.85889 13.5011
lfingers 7.12502
lthumb 34.9925 40.059
rfemur 279.849 -24.945 -325.009
rtibia 45.6779
rfoot 147.533 -226.94
rtoes 46.3859
lfemur -37.0427 26.5791 -33.2547
ltibia 57.9074
lfoot 125.488 -155.567
ltoes 11.7317
835
root -7.43679 15.0069 -10.4829 -142.909 -64.036 -195.151
lowerback -2.82034 -1.99973 -1.16432
upperback -10.7353 -4.32645 -6.9595
thorax -10.4139 -2.88611 -6.52899
lowerneck -8.26424 15.6597 4.60592
upperneck 1.16451 20.9122 -11.7096
head 3.38315 9.98476 -2.83566
rclavicle 4.06018e-014 -2.8625e-014
rhumerus -44.9473 -9.95129 -84.1677
rradius 29.3719
rwrist -3.49183
rhand 2.85167 11.7408
rfingers 7.12502
rthumb 28.3188 -16.138
lclavicle 4.06018e-014 -2.8625e-014
lhumerus -27.7062 15.6967 72.7572
lradius 14.1421
lwrist -50.4933
lhand 9.89563 12.4618
lfingers 7.12502
lthumb 35.0273 39.0114
rfemur 279.274 -25.8631 -325.154
rtibia 45.7653
rfoot 148.371 -225.876
rtoes 46.8523
lfemur -37.67 26.7784 -34.0062
ltibia 58.6591
lfoot 126.122 -155.438
ltoes 10.3791
